<svg width="15" height="14" viewBox="0 0 15 14" fill="none" xmlns="http://www.w3.org/2000/svg">
<path d="M14.4202 9.73019H5.11555L5.58274 8.77863L13.3452 8.76456C13.6077 8.76456 13.8327 8.57706 13.8796 8.31769L14.9546 2.3005C14.9827 2.14269 14.9406 1.98019 14.8374 1.85675C14.7865 1.796 14.7229 1.74707 14.6511 1.71334C14.5793 1.67961 14.5011 1.6619 14.4218 1.66144L4.5468 1.62863L4.46243 1.23175C4.4093 0.978625 4.18118 0.79425 3.9218 0.79425H1.50774C1.36146 0.79425 1.22116 0.852361 1.11773 0.955799C1.01429 1.05924 0.956177 1.19953 0.956177 1.34581C0.956177 1.4921 1.01429 1.63239 1.11773 1.73583C1.22116 1.83926 1.36146 1.89738 1.50774 1.89738H3.47493L3.84368 3.6505L4.75149 8.04581L3.58274 9.95363C3.52204 10.0355 3.48549 10.1328 3.4772 10.2344C3.46892 10.336 3.48924 10.438 3.53586 10.5286C3.62961 10.7146 3.81868 10.8318 4.02805 10.8318H5.0093C4.80011 11.1096 4.68712 11.448 4.68743 11.7958C4.68743 12.6802 5.40618 13.3989 6.29055 13.3989C7.17493 13.3989 7.89368 12.6802 7.89368 11.7958C7.89368 11.4474 7.77805 11.1083 7.5718 10.8318H10.089C9.8798 11.1096 9.76681 11.448 9.76711 11.7958C9.76711 12.6802 10.4859 13.3989 11.3702 13.3989C12.2546 13.3989 12.9734 12.6802 12.9734 11.7958C12.9734 11.4474 12.8577 11.1083 12.6515 10.8318H14.4218C14.7249 10.8318 14.9734 10.5849 14.9734 10.2802C14.9725 10.1341 14.9138 9.99422 14.8102 9.89118C14.7065 9.78814 14.5664 9.73027 14.4202 9.73019V9.73019ZM4.77649 2.71613L13.7734 2.74581L12.8921 7.68019L5.82493 7.69269L4.77649 2.71613ZM6.29055 12.2896C6.01868 12.2896 5.7968 12.0677 5.7968 11.7958C5.7968 11.5239 6.01868 11.3021 6.29055 11.3021C6.56243 11.3021 6.7843 11.5239 6.7843 11.7958C6.7843 11.9268 6.73228 12.0524 6.63969 12.1449C6.54709 12.2375 6.4215 12.2896 6.29055 12.2896V12.2896ZM11.3702 12.2896C11.0984 12.2896 10.8765 12.0677 10.8765 11.7958C10.8765 11.5239 11.0984 11.3021 11.3702 11.3021C11.6421 11.3021 11.864 11.5239 11.864 11.7958C11.864 11.9268 11.812 12.0524 11.7194 12.1449C11.6268 12.2375 11.5012 12.2896 11.3702 12.2896V12.2896Z" fill="white"/>
</svg>
